<?xml version="1.0" standalone="no"?>
<!DOCTYPE svg PUBLIC "-//W3C//DTD SVG 20010904//EN"
 "http://www.w3.org/TR/2001/REC-SVG-20010904/DTD/svg10.dtd">
<svg version="1.0" xmlns="http://www.w3.org/2000/svg"
 width="1857.000000pt" height="1857.000000pt" viewBox="0 0 1857.000000 1857.000000"
 preserveAspectRatio="xMidYMid meet">
<metadata>
Created by potrace 1.11, written by Peter Selinger 2001-2013
</metadata>
<g transform="translate(0.000000,1857.000000) scale(0.100000,-0.100000)"
fill="#000000" stroke="none">
<path d="M2070 14084 c-89 -19 -213 -82 -282 -144 -56 -50 -137 -160 -158
-214 -9 -25 -14 -27 -43 -22 -19 3 -78 2 -132 -4 -344 -36 -628 -281 -716
-619 -21 -80 -30 -264 -16 -332 7 -34 5 -37 -24 -50 -53 -21 -170 -102 -233
-160 -79 -72 -168 -193 -216 -294 -175 -368 -106 -811 174 -1103 l61 -64 -29
-22 c-81 -59 -209 -171 -273 -240 -99 -106 -186 -223 -177 -239 29 -49 149
-189 235 -273 205 -200 390 -312 606 -368 l82 -21 -57 -30 c-31 -16 -86 -59
-122 -95 -109 -108 -160 -232 -160 -385 0 -98 20 -180 64 -260 l33 -60 -54
-38 c-90 -64 -162 -169 -197 -286 -32 -108 -16 -292 33 -389 35 -68 109 -156
165 -197 31 -22 56 -41 56 -42 0 -2 -11 -20 -23 -41 -56 -88 -71 -148 -71
-282 0 -104 3 -135 21 -183 43 -116 119 -209 224 -277 33 -21 65 -41 72 -43 8
-3 5 -19 -12 -53 -37 -76 -51 -141 -51 -239 1 -109 11 -160 53 -245 40 -82
149 -193 233 -238 117 -61 146 -63 658 -60 337 2 469 7 489 16 24 10 42 7 140
-22 106 -32 229 -57 360 -72 l57 -6 0 -955 0 -955 48 6 c38 5 15394 1620
15615 1642 l67 7 0 2789 0 2790 -37 -6 c-21 -3 -3145 -332 -6943 -731 -3798
-399 -6925 -728 -6950 -731 l-45 -6 35 29 c133 107 334 311 373 379 5 9 -22
47 -81 116 -158 184 -390 372 -573 464 -39 19 -69 38 -67 42 2 4 27 54 56 112
80 160 95 230 96 435 1 192 -14 272 -79 412 -93 202 -207 321 -458 478 -14 9
-15 21 -7 90 19 161 -19 345 -103 495 -57 102 -205 250 -307 307 -185 104
-425 136 -621 83 -22 -6 -42 -10 -43 -8 -94 200 -175 289 -334 367 -116 58
-275 75 -412 45z m243 -294 c103 -32 198 -130 232 -239 l7 -24 -147 8 c-123 6
-162 4 -235 -10 l-87 -18 -54 40 c-30 22 -69 48 -86 57 -18 9 -33 20 -33 25 0
21 97 114 141 137 94 47 165 54 262 24z m-647 -391 c24 -6 44 -15 44 -20 0 -5
-15 -16 -32 -25 -98 -50 -316 -221 -414 -325 -67 -71 -126 -161 -176 -265 -22
-46 -43 -83 -45 -80 -2 2 -11 28 -19 57 -18 71 -18 200 1 274 46 177 200 332
376 379 65 18 204 20 265 5z m1539 -4 c187 -49 345 -215 386 -404 13 -63 7
-223 -10 -266 l-12 -30 -54 103 c-75 143 -133 221 -250 337 -69 69 -137 123
-217 175 -64 41 -117 78 -117 82 -2 21 196 23 274 3z m-760 -179 c73 -33 131
-89 168 -160 28 -55 31 -70 31 -151 0 -108 -19 -160 -89 -234 -67 -72 -148
-106 -250 -106 -99 1 -173 31 -239 99 -121 125 -134 301 -33 443 89 126 271
174 412 109z m533 -311 c61 -123 79 -283 47 -410 -44 -171 -164 -320 -317
-394 -99 -47 -161 -61 -271 -61 -97 0 -176 19 -267 63 -87 42 -215 168 -259
254 -17 34 -31 65 -31 69 0 3 17 -8 38 -24 58 -45 121 -79 197 -104 99 -32
279 -33 380 -1 159 50 298 166 372 309 51 98 73 183 73 288 0 44 2 77 4 75 3
-2 18 -31 34 -64z m-1409 -80 c-29 -138 -23 -311 16 -440 78 -264 272 -477
529 -579 106 -43 198 -59 335 -59 l123 0 -33 -29 c-146 -122 -341 -186 -534
-175 -318 18 -584 222 -692 532 -25 74 -27 91 -28 235 0 148 2 159 31 243 44
121 85 187 183 289 46 49 85 87 87 85 2 -2 -6 -48 -17 -102z m1791 -479 c17
-105 8 -319 -18 -418 -105 -391 -417 -687 -809 -767 -220 -45 -475 -13 -658
82 -46 24 -47 26 -15 19 19 -4 109 -7 200 -6 177 1 244 13 384 69 266 106 478
318 588 586 20 49 51 100 85 140 30 35 73 95 95 132 42 70 107 242 109 287 1
41 25 -34 39 -124z m-2473 24 c23 -30 55 -68 72 -84 30 -29 31 -33 31 -114 0
-335 132 -659 374 -919 l58 -63 -36 -15 c-123 -52 -327 -58 -456 -15 -294 98
-480 355 -480 659 0 185 60 336 185 469 69 74 192 160 205 144 3 -4 25 -32 47
-62z m2959 19 c111 -77 188 -170 243 -291 165 -364 -24 -796 -408 -932 -78
-28 -98 -30 -211 -31 -92 0 -143 5 -193 19 l-68 18 86 89 c237 246 364 559
368 909 l2 126 44 54 c24 30 45 61 48 68 8 20 27 14 89 -29z m286 -1383 c127
-56 260 -147 412 -280 l79 -70 -64 -59 c-192 -178 -405 -304 -606 -359 -104
-29 -349 -30 -498 -4 -361 65 -635 246 -635 421 0 59 42 136 107 195 79 73
105 85 142 65 16 -8 69 -27 118 -42 82 -25 100 -27 273 -27 173 0 191 2 273
27 91 28 217 87 277 131 44 31 55 32 122 2z m12703 -60 c92 -20 172 -45 268
-85 l77 -33 0 -412 c0 -227 -2 -415 -5 -418 -3 -3 -40 17 -82 45 -100 65 -223
123 -309 143 -92 21 -244 14 -332 -16 -321 -112 -404 -535 -157 -807 61 -67
163 -147 390 -303 482 -331 615 -495 682 -835 27 -141 25 -475 -6 -615 -67
-311 -192 -558 -385 -758 -110 -114 -208 -189 -331 -254 -182 -95 -344 -136
-576 -145 -222 -9 -354 16 -531 99 l-88 41 0 414 c0 227 1 413 3 413 2 0 50
-24 108 -54 57 -30 142 -67 189 -82 75 -24 101 -28 220 -28 216 -1 326 38 445
158 106 107 155 225 155 372 0 144 -31 233 -107 310 -46 45 -201 151 -417 284
-467 287 -658 551 -705 973 -72 646 209 1237 708 1486 104 53 233 95 331 110
41 6 86 13 100 15 51 9 287 -3 355 -18z m-15955 -77 c64 -19 100 -22 245 -23
148 -1 183 2 269 23 l99 25 64 -34 c129 -69 223 -183 223 -269 0 -94 -105
-217 -241 -284 -146 -71 -373 -116 -524 -104 -170 15 -340 103 -538 280 -111
100 -111 98 -40 169 117 120 307 253 348 244 11 -3 54 -15 95 -27z m1446 -19
l144 0 0 -265 0 -265 -160 0 -160 0 0 271 c0 243 2 271 16 265 9 -3 81 -6 160
-6z m11499 -211 c567 -70 974 -541 1109 -1283 42 -232 51 -358 51 -741 -1
-281 -5 -393 -18 -510 -64 -535 -187 -923 -386 -1220 -194 -288 -459 -512
-746 -630 -375 -155 -773 -131 -1096 67 -102 63 -293 249 -362 354 -137 208
-230 442 -286 719 -54 269 -79 670 -62 1005 43 851 236 1394 636 1795 335 336
749 494 1160 444z m-2662 -304 c102 -18 226 -56 321 -98 l69 -31 -7 -410 c-3
-225 -8 -411 -10 -413 -2 -2 -36 17 -75 42 -93 60 -221 121 -296 140 -76 19
-224 19 -298 0 -229 -60 -358 -243 -345 -488 6 -109 30 -181 86 -264 70 -103
143 -163 467 -386 427 -293 583 -476 645 -755 62 -277 47 -594 -42 -872 -137
-428 -451 -763 -840 -896 -313 -106 -677 -95 -927 28 l-86 43 -3 413 c-1 228
1 412 5 410 5 -2 60 -29 123 -60 161 -80 245 -102 395 -102 138 0 201 12 304
61 86 41 181 130 224 210 34 64 67 190 67 257 0 77 -19 176 -41 224 -12 23
-42 63 -67 89 -46 46 -232 172 -425 289 -304 183 -513 394 -608 614 -77 178
-104 353 -96 615 8 269 53 450 164 667 197 387 532 627 948 681 77 10 270 6
348 -8z m-1873 -287 c0 -206 -40 -3140 -44 -3243 -27 -660 -355 -1059 -986
-1199 -180 -39 -327 -56 -499 -56 -304 0 -524 65 -697 206 -121 99 -221 265
-271 450 -25 95 -27 112 -30 399 -4 299 33 3215 41 3222 6 6 827 96 831 91 2
-1 -6 -572 -16 -1268 -22 -1398 -21 -1951 3 -2041 32 -120 86 -197 171 -241
51 -26 203 -37 288 -19 229 48 305 192 328 621 6 102 18 826 27 1610 9 784 18
1427 20 1429 4 5 743 88 797 90 l37 1 0 -52z m-6039 -65 c65 -18 164 -39 222
-47 71 -9 128 -24 178 -46 479 -210 832 -631 958 -1140 96 -393 53 -780 -129
-1145 -230 -460 -655 -785 -1173 -897 -88 -19 -133 -22 -322 -22 -168 0 -239
4 -299 17 -43 9 -80 18 -82 19 -1 2 10 30 26 63 67 143 68 311 0 461 l-27 61
47 22 c66 31 156 114 201 184 61 95 84 174 84 297 0 123 -23 202 -85 298 l-38
60 29 22 c17 12 49 47 73 79 l42 58 48 -84 c161 -283 407 -492 681 -579 96
-30 163 -33 206 -7 61 35 87 129 54 193 -20 38 -59 64 -120 79 -74 18 -174 62
-241 107 -122 81 -257 228 -332 364 -49 89 -105 234 -91 239 45 15 175 89 233
132 120 91 246 266 246 342 0 88 -59 147 -145 147 -64 0 -105 -27 -140 -92
-91 -168 -321 -299 -500 -285 -148 12 -354 146 -419 275 -40 79 -67 97 -142
97 -60 0 -66 -2 -101 -38 -36 -35 -38 -41 -38 -100 0 -56 4 -71 39 -127 l39
-63 -6 -116 c-9 -193 -67 -335 -188 -465 -83 -89 -169 -146 -278 -186 -45 -17
-84 -30 -86 -30 -3 0 -5 425 -5 945 l0 945 733 -2 732 -3 116 -32z m3019 -340
c0 -439 -42 -3033 -51 -3148 -40 -531 -187 -830 -519 -1055 -381 -259 -956
-324 -1327 -150 l-83 39 0 410 c0 273 3 411 10 411 6 0 29 -12 52 -27 168
-105 439 -157 628 -119 213 43 331 155 384 366 26 102 33 368 52 1898 10 776
20 1412 23 1413 3 0 177 20 386 43 209 24 395 44 413 45 l32 1 0 -127z m-4892
-235 l2 -248 -155 0 c-172 0 -197 6 -259 60 -58 51 -80 103 -80 185 0 78 15
118 68 173 65 69 106 81 281 79 l140 -2 3 -247z m2 -798 l0 -250 -227 0 c-126
0 -245 5 -265 10 -98 28 -178 135 -178 239 1 101 53 184 145 227 48 23 59 24
288 24 l237 0 0 -250z m1211 45 c40 -19 88 -38 106 -41 27 -5 33 -11 33 -31 0
-80 -65 -174 -145 -212 -31 -15 -64 -21 -111 -21 -59 0 -65 2 -59 18 39 90 76
199 86 255 7 37 13 67 15 67 1 0 35 -16 75 -35z m-1211 -664 c0 -80 23 -124
80 -154 29 -15 49 -17 120 -12 202 15 392 84 538 195 l52 40 134 0 c155 0 202
-12 259 -68 59 -57 81 -106 81 -182 0 -76 -22 -125 -81 -182 -73 -71 -36 -68
-801 -68 l-688 0 -52 26 c-114 57 -169 186 -127 303 27 77 90 139 163 161 15
5 93 9 175 9 l147 1 0 -69z m829 -737 c61 -18 123 -70 154 -128 16 -31 21 -59
21 -111 0 -83 -21 -132 -83 -188 -73 -66 -96 -68 -563 -65 -469 3 -452 0 -535
91 -125 136 -52 363 132 408 17 4 208 7 426 8 331 1 404 -2 448 -15z"/>
<path d="M13465 9836 c-263 -83 -447 -433 -520 -990 -44 -341 -35 -900 21
-1231 47 -278 180 -509 341 -591 51 -26 68 -29 148 -29 83 0 97 3 160 34 257
126 423 519 476 1130 15 179 6 707 -16 906 -46 410 -189 688 -393 765 -61 23
-155 26 -217 6z"/>
</g>
</svg>
